<svg width="36" height="36" viewBox="0 0 36 36" fill="none" xmlns="http://www.w3.org/2000/svg">
<circle cx="18" cy="18" r="18" fill="#F1F1F1"/>
<path d="M12 9H20C20.5523 9 21 9.44772 21 10V22C21 22.5523 20.5523 23 20 23H12C11.4477 23 11 22.5523 11 22V10C11 9.44772 11.4477 9 12 9Z" fill="#F1F1F1" stroke="#A5A5A5" stroke-width="1.5"/>
<path d="M16 13H24C24.5523 13 25 13.4477 25 14V26C25 26.5523 24.5523 27 24 27H16C15.4477 27 15 26.5523 15 26V14C15 13.4477 15.4477 13 16 13Z" fill="#F1F1F1" stroke="#A5A5A5" stroke-width="1.5"/>
</svg>
